<?xml version="1.0" encoding="utf-8"?>
<!-- Generator: Adobe Illustrator 19.0.0, SVG Export Plug-In . SVG Version: 6.00 Build 0)  -->
<svg version="1.1" id="Layer_1" xmlns="http://www.w3.org/2000/svg" xmlns:xlink="http://www.w3.org/1999/xlink" x="0px" y="0px"
	 viewBox="0 0 50 50" style="enable-background:new 0 0 50 50;" xml:space="preserve">
<style type="text/css">
	.st0{opacity:0.16;}
	.st1{fill:#FFFFFF;}
</style>
<g id="XMLID_2_" class="st0">
	<path id="XMLID_13_" class="st1" d="M23.9,46.1c-0.7-0.1-1.5-0.2-2.2-0.3c-1.8-0.3-3.5-0.9-5.2-1.8c-2.6-1.3-4.7-3.2-6.5-5.5
		c-1.7-2.3-2.8-4.9-3.3-7.8c-0.5-3.3-0.3-6.4,0.8-9.6c0.7-1.9,1.6-3.6,2.8-5.1c0.9-1.2,2-2.3,3.2-3.2c1.5-1.2,3.2-2.1,5-2.8
		c1.5-0.6,3.1-0.9,4.7-1.1c0.3,0,0.4-0.1,0.4-0.4c0-1.7,0-3.3,0-5c0-0.1,0-0.2,0-0.5c3.9,2.9,7.6,5.7,11.5,8.6
		c-3.8,2.9-7.6,5.7-11.4,8.6c0-1.9,0-3.8,0-5.6c-5,0.3-10.8,4.6-11.4,11.5C11.6,33.6,17,39.7,24,40.3c1.9,0.2,3.8-0.1,5.6-0.8
		c1.8-0.7,3.4-1.7,4.7-3.1c1.3-1.4,2.3-3,3-4.8c0.6-1.8,0.8-3.7,0.6-5.6c1.9,0,3.8,0,5.8,0c0,0.8,0,1.6,0,2.4
		c-0.1,2.6-0.8,5-1.9,7.3c-1.2,2.4-2.9,4.5-5,6.2c-1.8,1.5-3.9,2.5-6.1,3.2c-1.3,0.4-2.6,0.6-3.9,0.8c-0.1,0-0.3,0-0.4,0.1
		C25.5,46.1,24.7,46.1,23.9,46.1z"/>
</g>
</svg>
