<?xml version="1.0" encoding="utf-8"?>
<!-- Generator: Adobe Illustrator 19.0.0, SVG Export Plug-In . SVG Version: 6.00 Build 0)  -->
<svg version="1.1" id="Layer_1" xmlns="http://www.w3.org/2000/svg" xmlns:xlink="http://www.w3.org/1999/xlink" x="0px" y="0px"
	 viewBox="-244 166 150 150" style="enable-background:new -244 166 150 150;" xml:space="preserve">
<style type="text/css">
	.st0{fill:#E8366C;}
</style>
<g>
	<path class="st0" d="M-187.6,294.2c-5.3,0-10.4-2.5-15.5-7.5c-3.2-3.2-6.3-6.3-9.5-9.5c-6.3-6.3-12.8-12.8-19.2-19.2
		c-6.1-6.1-7.6-14.4-3.9-22.2c3.3-6.7,9.8-10.9,16.6-10.9c1,0,2.1,0.1,3.1,0.3c4.2,0.8,8.5,3,11.9,6l0.1,0.1
		c4.8,4.4,9.4,9.1,13.9,13.6c0.9,0.9,1.8,1.8,2.6,2.6c6.8-6.8,13.6-13.6,20.4-20.4c9.8-9.8,20-20,30-29.9l0.2-0.2
		c3.8-3.7,9.4-9.2,17-9.2c0.5,0,1,0,1.5,0.1c4.9,0.5,9.4,2.8,12.6,6.3c4.1,4.3,6.8,12.2,4.5,18.3c-0.2,0.5-0.4,0.9-0.6,1.4
		c-0.4,0.7-0.8,1.3-1.1,1.7l-0.3,0.4l-0.1,0.1c-0.4,0.5-0.8,1.1-1.2,1.7c-1.6,2.3-3.4,4.9-5.8,7c-15.4,15.5-31.1,31.2-46.4,46.5
		c-5.2,5.2-10.3,10.3-15.5,15.5C-177.2,291.8-182.2,294.2-187.6,294.2z"/>
	<path class="st0" d="M-107.8,210.2c0,0.1-0.1,0.2-0.2,0.3c-0.3,0.5-0.6,0.9-0.9,1.5c-1.9,2.6-3.8,5.7-6.2,7.7
		c-20.6,20.8-41.4,41.4-62,62.1c-7.2,7.2-13.6,7.2-20.9-0.1c-9.5-9.5-19.1-19-28.7-28.7c-4.1-4.1-4.9-9.4-2.6-14.2
		c2.2-4.5,7-7.7,12-6.8c3.1,0.6,6.3,2.3,8.6,4.4c7,6.5,13.6,13.5,20.4,20.2c0.2,0.2,0.4,0.3,0.9,0.6c0.9-0.9,1.9-1.7,2.8-2.7
		c17.5-17.4,34.9-35,52.4-52.3c3.4-3.3,8-7.9,13.1-7.4c3.1,0.3,6.1,1.8,8.2,4.1C-108.4,201.4-106.4,206.8-107.8,210.2z"/>
</g>
</svg>
