<?xml version="1.0" encoding="utf-8"?>
<!-- Generator: Adobe Illustrator 19.0.0, SVG Export Plug-In . SVG Version: 6.00 Build 0)  -->
<svg version="1.1" id="Layer_1" xmlns="http://www.w3.org/2000/svg" xmlns:xlink="http://www.w3.org/1999/xlink" x="0px" y="0px"
	 viewBox="0 0 39.8 41.6" style="enable-background:new 0 0 39.8 41.6;" xml:space="preserve">
<style type="text/css">
	.st0{fill:#FFFFFF;}
</style>
<g id="XMLID_4_">
	<path id="XMLID_26_" class="st0" d="M35.1,35.4c-1.6-0.6-3-1.2-4.4-1.7c-1.6-0.6-4.6,1.1-4.9,2.8c-0.8,5.1-0.8,5.1-6.1,5.1
		c-4.8,0-4.8,0-5.5-4.7c-0.4-2.4-3.2-3.9-5.4-3.1c-5.2,2-3.8,2.5-6.7-2.3c-0.9-1.5-2.4-3.2-2.2-4.6c0.2-1.3,2.3-2.3,3.6-3.3
		c1.2-1,1.2-4.5,0.1-5.5c0,0-0.1-0.1-0.2-0.1c-4-3.3-4-3.3-1.4-7.7C4.5,6,4.5,6,9.1,7.9c1.8,0.7,4.8-1,5.1-2.9C15,0,15,0,20.1,0
		c5,0,5,0,5.7,4.9c0.3,2.1,3.2,3.7,5.2,3C35.6,6,35.6,6,38,10.2c2.5,4.4,2.5,4.4-1.5,7.8c-1.2,1-1.2,4.5-0.1,5.5
		c0,0,0.1,0.1,0.2,0.1c4,3.3,4,3.3,1.4,7.7c-0.6,1-1.1,2.1-1.8,3C35.9,34.8,35.5,35.1,35.1,35.4z M20,28.1c4,0,7.3-3.3,7.3-7.3
		c0-3.9-3.2-7.2-7.2-7.3c-4-0.1-7.4,3.2-7.4,7.2C12.7,24.7,16,28.1,20,28.1z"/>
</g>
</svg>
