<?xml version="1.0" encoding="utf-8"?>
<!-- Generator: Adobe Illustrator 19.0.0, SVG Export Plug-In . SVG Version: 6.00 Build 0)  -->
<svg version="1.1" id="Layer_1" xmlns="http://www.w3.org/2000/svg" xmlns:xlink="http://www.w3.org/1999/xlink" x="0px" y="0px"
	 viewBox="-167 213.1 304.5 62" style="enable-background:new -167 213.1 304.5 62;" xml:space="preserve">
<style type="text/css">
	.st0{fill:#FFFFFF;}
</style>
<g id="XMLID_4_">
	<path id="XMLID_5_" class="st0" d="M-83.3,254.2c2.2,0,4.5-0.6,7.1-1.7l1.2,6.5c-2.9,1.3-6.2,2-9.8,2c-2,0-3.9-0.3-5.5-0.9
		c-1.6-0.6-3.1-1.5-4.3-2.6s-2.1-2.4-2.8-3.9s-1-3.2-1-4.9c0-1.9,0.3-3.6,1-5.1s1.6-2.8,2.8-3.9c1.2-1.1,2.6-1.9,4.2-2.5
		c1.6-0.6,3.3-0.9,5.2-0.9c1.8,0,3.5,0.3,4.9,0.9c1.4,0.6,2.6,1.5,3.5,2.5s1.6,2.3,2.1,3.8s0.7,3,0.7,4.6c0,0.2,0,0.4,0,0.6
		s0,0.4-0.1,0.6l-14.4,1.9c0.4,1.1,1,1.9,1.9,2.4S-84.6,254.2-83.3,254.2z M-81.5,245c-0.5-2-1.8-3-3.7-3c-0.6,0-1.1,0.1-1.6,0.4
		s-0.9,0.6-1.2,1c-0.3,0.4-0.6,0.9-0.7,1.5c-0.1,0.6-0.3,1.2-0.3,1.8L-81.5,245z"/>
	<path id="XMLID_64_" class="st0" d="M-60.1,242.2c-1.9,0-2.9,0.3-2.9,1c0,0.3,0.1,0.5,0.2,0.7s0.3,0.4,0.6,0.5
		c0.3,0.1,0.5,0.3,0.8,0.4c0.3,0.1,0.6,0.2,0.8,0.2c1.2,0.2,2.4,0.5,3.4,0.9c1,0.4,2,0.9,2.7,1.5c0.7,0.6,1.4,1.4,1.8,2.4
		s0.7,2,0.7,3.3c0,1.3-0.2,2.4-0.7,3.4s-1.1,1.8-1.9,2.5s-1.7,1.2-2.8,1.6s-2.3,0.5-3.5,0.5c-2,0-3.9-0.1-5.6-0.3
		c-1.7-0.2-3.2-0.6-4.7-1.2l1.1-5.5c0.5,0.1,1,0.3,1.3,0.4s0.7,0.2,0.9,0.2c0.2,0,0.5,0.1,0.9,0.2c0.4,0.1,0.7,0.1,1.2,0.2
		s0.8,0.1,1.3,0.2s0.8,0.1,1.1,0.1c1.6,0,2.4-0.4,2.4-1.1c0-0.3-0.2-0.6-0.4-0.8c-0.2-0.2-0.4-0.4-0.7-0.6s-0.6-0.3-1-0.4
		c-0.4-0.1-0.8-0.2-1.2-0.3c-1.2-0.2-2.3-0.5-3.2-0.9c-0.9-0.4-1.7-0.9-2.3-1.5c-0.6-0.6-1.1-1.4-1.4-2.3c-0.3-0.9-0.5-2-0.5-3.2
		c0.1-1.4,0.4-2.6,0.9-3.6s1.3-1.8,2.2-2.4c0.9-0.6,2-1.1,3.2-1.4s2.6-0.4,4-0.4c1.5,0,2.9,0.1,4.3,0.2c1.4,0.1,2.6,0.5,3.8,1.1
		l-1,5.7C-56.7,242.5-58.6,242.2-60.1,242.2z"/>
	<path id="XMLID_66_" class="st0" d="M-31.1,259.3c-2.2,1.1-4.6,1.6-7.2,1.6c-1.4,0-2.6-0.2-3.6-0.7s-2-1.1-2.7-1.9
		c-0.7-0.8-1.3-1.8-1.7-3c-0.4-1.2-0.6-2.5-0.6-4v-8.9h-3v-6h3.8l4.5-9.1h4.9v9.1h5.5v6h-5.5v8.2c0,0.8,0.3,1.5,0.8,1.9
		c0.5,0.4,1.3,0.6,2.2,0.6c0.7,0,1.5-0.2,2.2-0.6L-31.1,259.3z"/>
	<path id="XMLID_68_" class="st0" d="M-27.8,228.6c0-0.7,0.2-1.4,0.5-1.9s0.7-1.1,1.2-1.5s1.1-0.8,1.7-1s1.3-0.4,2-0.4
		c0.8,0,1.6,0.1,2.2,0.4s1.2,0.7,1.7,1.1c0.5,0.4,0.8,1,1.1,1.5s0.4,1.1,0.4,1.7c0,0.7-0.1,1.4-0.4,2c-0.3,0.6-0.7,1.1-1.2,1.5
		c-0.5,0.4-1.1,0.8-1.7,1s-1.3,0.4-2,0.4c-0.8,0-1.5-0.1-2.1-0.4s-1.2-0.6-1.7-1c-0.5-0.4-0.9-1-1.1-1.5S-27.8,229.3-27.8,228.6z
		 M-12.8,259.3c-1.9,1.1-4,1.6-6.3,1.6c-1.4,0-2.6-0.2-3.6-0.7s-2-1.1-2.7-1.9c-0.7-0.8-1.3-1.8-1.7-3c-0.4-1.2-0.6-2.5-0.6-4v-14.8
		h10.2v14.3c0,0.8,0.2,1.3,0.6,1.7c0.4,0.4,0.9,0.6,1.5,0.6s1.3-0.2,2-0.6L-12.8,259.3z"/>
	<path id="XMLID_71_" class="st0" d="M16.7,242.2c0.7-2,1.7-3.5,3.2-4.5s3.3-1.5,5.6-1.5c1.3,0,2.5,0.3,3.6,0.9
		c1.1,0.6,2.1,1.5,2.9,2.6s1.4,2.4,1.9,3.9s0.7,3.2,0.7,5v12H24.5v-12c0-0.7-0.1-1.3-0.2-1.9s-0.4-1.1-0.6-1.5c-0.2-0.4-0.6-0.8-1-1
		s-0.9-0.4-1.4-0.4c-0.7,0-1.3,0.2-1.7,0.5c-0.4,0.3-0.9,0.7-1.2,1.1s-0.5,1-0.7,1.5s-0.2,1.1-0.2,1.6v12h-10v-12
		c0-0.7-0.1-1.3-0.2-1.8s-0.4-1.1-0.7-1.5c-0.3-0.4-0.6-0.8-1.1-1c-0.5-0.2-0.9-0.4-1.4-0.4c-0.6,0-1.1,0.1-1.6,0.4s-0.9,0.6-1.2,1
		c-0.3,0.4-0.6,0.9-0.8,1.4s-0.3,1.1-0.3,1.7v12.2H-10v-23.6H0.1v4.9c0.9-2,2-3.4,3.4-4.3c1.4-0.9,3-1.3,4.8-1.3
		c0.9,0,1.8,0.1,2.6,0.3s1.6,0.6,2.3,1.1s1.4,1.1,2,1.9C15.8,240.3,16.3,241.1,16.7,242.2z"/>
	<path id="XMLID_73_" class="st0" d="M57.7,256.1c-0.8,1.6-1.8,2.8-3,3.6c-1.2,0.8-2.9,1.2-4.8,1.2c-1.6,0-3.1-0.3-4.5-0.9
		s-2.7-1.5-3.8-2.6s-1.9-2.4-2.6-4c-0.7-1.6-1-3.2-1-5s0.3-3.4,1-4.9s1.5-2.8,2.6-3.9s2.3-1.9,3.8-2.5s2.9-0.9,4.4-0.9
		c0.8,0,1.6,0.1,2.4,0.3c0.8,0.2,1.5,0.5,2.2,1s1.3,1,1.9,1.7c0.6,0.7,1,1.5,1.4,2.5v-5.6h10.1v24.4H57.7L57.7,256.1L57.7,256.1z
		 M57.7,248.4c0-0.6-0.2-1.2-0.4-1.8c-0.2-0.6-0.6-1.1-1-1.5c-0.4-0.4-0.9-0.7-1.5-1c-0.6-0.3-1.1-0.4-1.8-0.4s-1.3,0.1-1.9,0.4
		s-1.1,0.6-1.5,1c-0.4,0.4-0.8,0.9-1,1.5c-0.2,0.6-0.4,1.2-0.4,1.9s0.1,1.3,0.4,1.9c0.3,0.6,0.6,1.1,1.1,1.5c0.5,0.4,1,0.8,1.5,1
		c0.5,0.2,1.2,0.4,1.8,0.4c0.7,0,1.3-0.1,1.8-0.4s1.1-0.6,1.5-1c0.4-0.4,0.8-0.9,1-1.5c0.2-0.6,0.4-1.1,0.4-1.7L57.7,248.4
		L57.7,248.4z"/>
	<path id="XMLID_76_" class="st0" d="M89.9,259.3c-2.2,1.1-4.6,1.6-7.2,1.6c-1.4,0-2.6-0.2-3.6-0.7s-2-1.1-2.7-1.9
		c-0.7-0.8-1.3-1.8-1.7-3c-0.4-1.2-0.6-2.5-0.6-4v-8.9h-3v-6h3.8l4.5-9.1h4.9v9.1h5.5v6h-5.5v8.2c0,0.8,0.3,1.5,0.8,1.9
		c0.5,0.4,1.3,0.6,2.2,0.6c0.7,0,1.5-0.2,2.2-0.6L89.9,259.3z"/>
	<path id="XMLID_78_" class="st0" d="M93.3,228.6c0-0.7,0.2-1.4,0.5-1.9s0.7-1.1,1.2-1.5s1.1-0.8,1.7-1s1.3-0.4,2-0.4
		c0.8,0,1.6,0.1,2.2,0.4s1.2,0.7,1.7,1.1c0.5,0.4,0.8,1,1.1,1.5s0.4,1.1,0.4,1.7c0,0.7-0.1,1.4-0.4,2c-0.3,0.6-0.7,1.1-1.2,1.5
		c-0.5,0.4-1.1,0.8-1.7,1s-1.3,0.4-2,0.4c-0.8,0-1.5-0.1-2.1-0.4s-1.2-0.6-1.7-1c-0.5-0.4-0.9-1-1.1-1.5S93.3,229.3,93.3,228.6z
		 M108.3,259.3c-1.9,1.1-4,1.6-6.3,1.6c-1.4,0-2.6-0.2-3.6-0.7s-2-1.1-2.7-1.9c-0.7-0.8-1.3-1.8-1.7-3c-0.4-1.2-0.6-2.5-0.6-4v-14.8
		h10.2v14.3c0,0.8,0.2,1.3,0.6,1.7c0.4,0.4,0.9,0.6,1.5,0.6s1.3-0.2,2-0.6L108.3,259.3z"/>
	<path id="XMLID_81_" class="st0" d="M109.9,248.5c0.1-2,0.5-3.8,1.3-5.3s1.8-2.8,3-3.9c1.2-1.1,2.7-1.8,4.3-2.4
		c1.6-0.6,3.4-0.8,5.3-0.8c2,0,3.9,0.3,5.6,0.9c1.7,0.6,3.1,1.5,4.4,2.5s2.2,2.4,2.8,3.9s1,3.2,1,5c0,1.5-0.2,2.8-0.6,4
		s-0.9,2.2-1.6,3.2c-0.7,1-1.4,1.7-2.3,2.4s-1.9,1.2-2.9,1.7s-2.1,0.7-3.2,0.9c-1.1,0.2-2.2,0.3-3.3,0.3c-2.1,0-3.9-0.3-5.6-0.9
		s-3.2-1.4-4.4-2.5s-2.2-2.4-2.8-3.9S109.9,250.4,109.9,248.5z M119.2,248.5c0,0.9,0.1,1.6,0.4,2.3c0.3,0.7,0.6,1.2,1,1.6
		s0.9,0.8,1.5,1s1.1,0.3,1.7,0.3s1.1-0.1,1.7-0.3s1-0.5,1.5-1s0.8-1,1-1.6c0.2-0.6,0.4-1.4,0.4-2.3c0-0.9-0.1-1.6-0.4-2.3
		s-0.6-1.2-1-1.6c-0.4-0.4-0.9-0.8-1.5-1c-0.6-0.2-1.1-0.3-1.7-0.3s-1.1,0.1-1.7,0.3c-0.6,0.2-1,0.5-1.5,1s-0.8,1-1,1.6
		C119.4,246.8,119.2,247.7,119.2,248.5z"/>
</g>
<g id="XMLID_1_">
	<polygon id="XMLID_2_" class="st0" points="-139.6,248.1 -133.2,248.1 -136.4,233.7 	"/>
	<path id="XMLID_86_" class="st0" d="M-105,225.1c0-6.6-5.4-12-12-12h-38c-6.6,0-12,5.4-12,12v38c0,6.6,5.4,12,12,12h38
		c6.6,0,12-5.4,12-12V225.1z M-130.9,260.1l-1.3-6h-8.5l-1.3,6h-10.8l9.1-33h14.6l9.6,33H-130.9z"/>
</g>
</svg>
